HIERARCHY
ROOT Hips
{
	OFFSET -0.001795 -0.223333 0.028219
	CHANNELS 6 Xposition Yposition Zposition Zrotation Yrotation Xrotation 
	JOINT LeftUpLeg
	{
		OFFSET 0.069520 -0.091406 -0.006815
		CHANNELS 3 Zrotation Yrotation Xrotation
		JOINT LeftLeg
		{
			OFFSET 0.034277 -0.375199 -0.004496
			CHANNELS 3 Zrotation Yrotation Xrotation
			JOINT LeftFoot
			{
				OFFSET -0.013596 -0.397961 -0.043693
				CHANNELS 3 Zrotation Yrotation Xrotation
				JOINT LeftToe
				{
					OFFSET 0.026358 -0.055791 0.119288
					CHANNELS 3 Zrotation Yrotation Xrotation
					End Site
					{
						OFFSET 0.000000 0.000000 0.000000
					}
				}
			}
		}
	}
	JOINT RightUpLeg
	{
		OFFSET -0.067670 -0.090522 -0.004320
		CHANNELS 3 Zrotation Yrotation Xrotation
		JOINT RightLeg
		{
			OFFSET -0.038290 -0.382569 -0.008850
			CHANNELS 3 Zrotation Yrotation Xrotation
			JOINT RightFoot
			{
				OFFSET 0.015774 -0.398415 -0.042312
				CHANNELS 3 Zrotation Yrotation Xrotation
				JOINT RightToe
				{
					OFFSET -0.025372 -0.048144 0.123348
					CHANNELS 3 Zrotation Yrotation Xrotation
					End Site
					{
						OFFSET 0.000000 0.000000 0.000000
					}
				}
			}
		}
	}
	JOINT Spine
	{
		OFFSET -0.002533 0.108963 -0.026696
		CHANNELS 3 Zrotation Yrotation Xrotation
		JOINT Spine1
		{
			OFFSET 0.005487 0.135180 0.001092
			CHANNELS 3 Zrotation Yrotation Xrotation
			JOINT Spine2
			{
				OFFSET 0.001457 0.052922 0.025425
				CHANNELS 3 Zrotation Yrotation Xrotation
				JOINT Neck
				{
					OFFSET -0.002778 0.213870 -0.042857
					CHANNELS 3 Zrotation Yrotation Xrotation
					JOINT Head
					{
						OFFSET 0.005152 0.064970 0.051349
						CHANNELS 3 Zrotation Yrotation Xrotation
						End Site
						{
							OFFSET 0.000000 0.000000 0.000000
						}
					}
				}
				JOINT LeftShoulder
				{
					OFFSET 0.078845 0.121749 -0.034090
					CHANNELS 3 Zrotation Yrotation Xrotation
					JOINT LeftArm
					{
						OFFSET 0.090977 0.030469 -0.008868
						CHANNELS 3 Zrotation Yrotation Xrotation
						JOINT LeftForeArm
						{
							OFFSET 0.259612 -0.012772 -0.027456
							CHANNELS 3 Zrotation Yrotation Xrotation
							JOINT LeftHand
							{
								OFFSET 0.249234 0.008986 -0.001171
								CHANNELS 3 Zrotation Yrotation Xrotation
								End Site
								{
									OFFSET 0.000000 0.000000 0.000000
								}
							}
						}
					}
				}
				JOINT RightShoulder
				{
					OFFSET -0.081759 0.118833 -0.038615
					CHANNELS 3 Zrotation Yrotation Xrotation
					JOINT RightArm
					{
						OFFSET -0.096012 0.032551 -0.009143
						CHANNELS 3 Zrotation Yrotation Xrotation
						JOINT RightForeArm
						{
							OFFSET -0.253742 -0.013329 -0.021401
							CHANNELS 3 Zrotation Yrotation Xrotation
							JOINT RightHand
							{
								OFFSET -0.255298 0.007772 -0.005559
								CHANNELS 3 Zrotation Yrotation Xrotation
								End Site
								{
									OFFSET 0.000000 0.000000 0.000000
								}
							}
						}
					}
				}
			}
		}
	}
}
MOTION
Frames: 7
Frame Time: 0.050000
0.327887 0.939381 1.497657 3.025953 15.318336 14.689841 6.726192 -1.362515 -17.577684 -1.622838 0.113069 -0.085012 0.411020 4.390146 6.008200 0.000000 0.000000 0.000000 -7.330167 0.215925 -25.449717 3.401305 -0.582156 9.161210 -4.313889 -10.979466 7.849076 0.000000 0.000000 0.000000 9.169279 -2.647943 13.758724 -2.028589 0.763989 1.018312 -1.700862 10.573065 8.525809 13.779566 -3.586771 -23.330366 0.000000 0.000000 0.000000 -35.256389 -25.113937 5.459582 -28.579720 -8.878558 0.673184 26.953974 -72.810272 -19.571168 0.000000 0.000000 0.000000 24.604855 19.105997 16.930462 16.796322 17.937282 -1.348794 -31.448628 23.444349 -4.456222 0.000000 0.000000 0.000000 
0.347593 0.938684 1.495656 1.947178 14.083909 13.631131 6.625324 -1.295968 -17.295760 -1.656966 0.102402 0.719369 1.183394 5.586899 5.730622 0.000000 0.000000 0.000000 -6.965010 0.385534 -25.619484 2.689915 -0.426751 10.580192 -3.970041 -10.362092 7.125662 0.000000 0.000000 0.000000 8.077244 -2.264342 13.087998 -2.090130 0.855743 0.181901 -1.164112 9.386484 8.903144 12.287746 -3.001349 -23.235185 0.000000 0.000000 0.000000 -34.638004 -24.174017 5.746164 -28.622648 -8.178670 0.269245 32.380001 -73.898521 -23.972558 0.000000 0.000000 0.000000 25.450805 18.379339 16.149623 21.477638 16.040622 -1.471394 -34.811064 29.632172 -6.573965 0.000000 0.000000 0.000000 
0.369892 0.937796 1.493813 1.102194 13.443066 12.216572 5.975417 -1.198743 -15.864303 -1.355684 0.066306 1.260136 1.665554 6.106250 5.051733 0.000000 0.000000 0.000000 -6.663030 0.500263 -24.967527 1.863039 -0.237857 11.598837 -3.854912 -10.173336 6.932454 0.000000 0.000000 0.000000 7.306378 -1.924715 12.105587 -2.124552 0.930841 -0.714422 -0.881144 7.853676 9.413207 11.712831 -2.937574 -23.125387 0.000000 0.000000 0.000000 -34.897035 -22.255314 5.245480 -28.169825 -8.254125 0.040261 25.161244 -75.638583 -18.631342 0.000000 0.000000 0.000000 27.685098 15.839937 14.465850 25.064806 13.897432 -1.822780 -38.715974 37.451181 -9.817581 0.000000 0.000000 0.000000 
0.391406 0.937725 1.492257 0.465645 12.285445 10.926792 5.282336 -1.096146 -14.419165 -1.025785 0.022043 1.873034 2.167650 6.488946 3.988770 0.000000 0.000000 0.000000 -7.002824 0.490293 -25.152192 2.006656 -0.275004 13.703368 -3.475811 -9.464305 6.786268 0.000000 0.000000 0.000000 6.160378 -1.520822 10.905328 -1.956206 0.907376 -1.534001 -1.108913 6.215214 9.810529 10.702346 -2.746630 -22.664219 0.000000 0.000000 0.000000 -33.813488 -20.737420 5.306958 -28.516425 -7.833093 -0.387601 19.275820 -76.180472 -13.884134 0.000000 0.000000 0.000000 30.367001 12.984043 12.264439 29.421294 10.716145 -2.435837 -41.039026 46.457582 -13.665503 0.000000 0.000000 0.000000 
0.409870 0.938068 1.492015 -0.211616 11.383992 9.574655 4.689051 -0.943416 -12.231204 -1.359317 0.091998 0.653087 2.752771 7.617597 4.245119 0.000000 0.000000 0.000000 -6.522715 0.630693 -25.334445 1.473860 -0.153693 16.722961 -3.512935 -9.511083 5.649497 0.000000 0.000000 0.000000 4.947137 -1.128957 9.415440 -1.717314 0.796321 -1.149257 -0.828575 4.445425 9.271681 9.683873 -2.654179 -21.625666 0.000000 0.000000 0.000000 -33.694379 -18.920752 5.138309 -28.164715 -7.156132 -0.789153 11.561368 -76.952979 -7.513578 0.000000 0.000000 0.000000 32.293414 9.684066 9.082403 33.019145 5.612984 -3.456088 -39.402016 55.410187 -16.325068 0.000000 0.000000 0.000000 
0.424418 0.939878 1.493712 -1.159883 10.463207 7.849507 4.309145 -0.753970 -9.623240 -1.328892 0.124035 -0.564592 3.322046 8.610185 4.304194 0.000000 0.000000 0.000000 -5.371875 0.917075 -25.787386 1.087802 -0.041318 19.624423 -2.986589 -8.221593 4.231627 0.000000 0.000000 0.000000 4.233663 -0.862722 8.029045 -1.040662 0.507650 -1.162359 -1.555728 2.981088 9.394563 9.493427 -2.932672 -20.799036 0.000000 0.000000 0.000000 -32.847833 -17.497506 5.035207 -27.470736 -7.174160 -1.027224 4.763518 -76.364434 -1.797581 0.000000 0.000000 0.000000 34.129533 6.918261 6.283256 35.343290 0.773998 -4.607453 -34.063138 62.475557 -16.109155 0.000000 0.000000 0.000000 
0.435956 0.942601 1.497155 -1.985484 9.651363 6.482188 4.369421 -0.582801 -7.195538 -1.240282 0.154256 -2.050307 3.422876 9.009444 5.088940 0.000000 0.000000 0.000000 -3.566869 1.338890 -25.637944 0.682705 0.114465 20.794944 -2.487123 -7.065267 3.845192 0.000000 0.000000 0.000000 4.072348 -0.718618 6.934118 -0.974408 0.487765 -1.216388 -1.765310 1.669415 9.215862 8.538103 -2.725559 -19.984648 0.000000 0.000000 0.000000 -31.830805 -16.251428 4.966102 -26.551734 -7.638127 -1.119662 0.317901 -76.996050 1.966285 0.000000 0.000000 0.000000 34.171433 4.775139 3.771709 37.886395 -3.156134 -5.698765 -22.318069 66.523340 -10.081833 0.000000 0.000000 0.000000 
